<svg version="1" xmlns="http://www.w3.org/2000/svg" width="40" height="40" viewBox="0 0 228.000000 228.000000"><path fill="#3583d1" d="M0 114v114h228V0H0v114zm106-69.4c0 .3-2.5 6.9-5.6 14.7-3.1 7.8-6.7 17.2-8 20.9l-2.3 6.7 7.7-6.5c16.6-14.2 40.8-28.2 55-31.9 15.7-4 32.8-.9 40.3 7.2 5.6 5.9 6.4 8.8 6.3 21.8 0 14.2-.6 16-15 52.6-5.2 13.2-9.4 24.6-9.4 25.5 0 .8 1.2 1.9 2.8 2.5 3.9 1.6 12.5-.2 22.3-4.6 4.4-2.1 8.5-3.3 8.9-2.9.5.5 2.4 4.4 4.3 8.6l3.5 7.7-10.1 6.9c-29.9 20.3-53.6 25.5-73.6 16.1-9.5-4.4-14.5-8.9-18-16.2-7-14.5-5.2-24.5 11.4-63.6 4.7-11.2 8.5-21.2 8.3-22.3-.3-1.9-.5-1.8-5.6.9-10.3 5.5-23.8 16-36.8 28.6L79.2 130l-1.1 9.4c-1.2 9.4-1.6 43.9-.6 45.6.3.5-.4 1.2-1.7 1.4-4.2 1-48.6 7.6-50.6 7.6-1.7 0-2.3-1.5-4.1-10.3-5.8-28.5-5.4-52.3 1.4-77.2 3-10.9 6.7-20.6 14.7-38.7l6.2-13.7 4.2-.7c2.3-.3 15.6-2.5 29.5-4.9 27.1-4.6 28.9-4.8 28.9-3.9z"/></svg>